<?xml version="1.0" standalone="no"?><!DOCTYPE svg PUBLIC "-//W3C//DTD SVG 1.1//EN" "http://www.w3.org/Graphics/SVG/1.1/DTD/svg11.dtd" [<!ENTITY nbsp " ">]><svg data-noselect="" 
  width="200" 
  height="200" 
  ref="svg_canvas" 
  preserveAspectRatio="none" 
  version="1.1" xmlns="http://www.w3.org/2000/svg" 
  style="background: transparent;">
    <defs></defs>
    <g xmlns="http://www.w3.org/2000/svg" id="shape_MFTiJwY3ZC" class="" ref="shape_MFTiJwY3ZC" key="shape_MFTiJwY3ZC" transform="translate(20, 20) scale(1,1)" style="cursor:move;display:inline;opacity:1;" filter="">
            <g style="display:inline"><rect fill="rgba(0,0,0,0)" width="180" height="180" x="-10" y="-10"/><svg xmlns="http://www.w3.org/2000/svg" xmlns:xlink="http://www.w3.org/1999/xlink" version="1.1" id="图层_1" x="0px" y="0px" width="160" height="152.45622471038627" viewBox="2.6600608825683594 7.145834922790527 194.84063720703125 185.6541748046875" style="enable-background:new 0 0 200 200;" xml:space="preserve" class="style-removed" preserveAspectRatio="none" data-parent="shape_MFTiJwY3ZC">

<g>
	<g>
		<path d="M130.6,142.6c-5.6-15-15-38.7-22.9-51.2c-13-20.6-23.4-16.3-19.7,6.4c3.6,22,11.1,48,18.2,62.6    c-0.2,0.2-0.4,0.3-0.6,0.4c-12.3-13.2-32-30-46.8-39.9c-19.8-13.2-26.6-6.6-15.1,14c8.6,15.5,24.8,32.2,32.3,39.6    c-21.1,7.4-38.9,8.8-47.2,7.8c-15.2-1.8-22-8.1-24.9-18c-4-13.6-1.1-56.9,51.6-93.4c40.7-28.2,71.3-11.1,85,5.4    C150.6,88.7,163,113.2,130.6,142.6z" fill="#EF8201"/>
		<path d="M173.5,86.3c-13.1-0.2-23.8-7.1-23.6-11.5c0.2-4.4,10.8-10.9,24-10.7c13.1,0.2,23.7,3.8,23.6,11.5    C197.4,82.8,186.7,86.6,173.5,86.3z" fill="#BFD700"/>
		<path d="M171.6,29.6c-6.4,13.4-26.4,39.9-31.7,37.4c-5.3-2.5,3-33.6,9.6-47c6.3-12.8,11.7-14.2,17.2-12    C172.1,10.2,178,16.2,171.6,29.6z" fill="#17A831"/>
	</g>
	<g>
		<g>
			<circle cx="112.9" cy="187.6" r="5.2" fill="#EF8201"/>
			<circle cx="131" cy="176.4" r="5.2" fill="#EF8201"/>
		</g>
	</g>
</g>
</svg></g>
        </g>
  </svg>